<?xml version="1.0" encoding="utf-8" ?>
<svg baseProfile="full" height="200mm" version="1.1" viewBox="0,0,200,200" width="200mm" xmlns="http://www.w3.org/2000/svg" xmlns:ev="http://www.w3.org/2001/xml-events" xmlns:xlink="http://www.w3.org/1999/xlink"><defs /><rect fill="#1a1a1a" height="200" width="200" x="0" y="0" /><text alignment-baseline="middle" fill="#e1ed5e" style="dominant-baseline: central; font-size:9.0px; font-family:Arial;" text-anchor="middle" x="100.0" y="100.0">2022</text><line stroke="#e1ed5e" stroke-width="0.3" x1="100.0" x2="100.0" y1="15.0" y2="10.0" /><path d="M 100.0 14.0 a86.0,86.0 0 0,1 42.46469731375804,11.215312516191453" fill="none" id="id37" stroke="none" /><text fill="#e1ed5e" style="font-size:6.75px; font-family:Arial;" text-anchor="middle"><textPath startOffset="22.20632615414155" xlink:href="#id37">January</textPath></text><path d="M 100.72285384407766 79.0124445844662 l 1.0832389967758989 -31.45108607966247 a52.46973502135781,52.46973502135781 0 0,0 0.9023774202412347,0.03885826991691391 l -1.624457249406465 31.42778008322136" fill="#fff917" stroke="none" /><path d="M 101.80526077348638 79.07773832637324 l 2.7049185021522724 -31.348940573593815 a52.46542005424371,52.46542005424371 0 0,0 0.899094589246567,0.0853798648636299 l -3.2441382184890837 31.297735164215005" fill="#fff917" stroke="none" /><path d="M 102.16513564639614 79.11191278185805 l 3.246578529927271 -31.32127800239474 a52.48908902865057,52.48908902865057 0 0,0 0.8978965943587455,0.10088914437324893 l -3.785241827795742 31.260752904550895" fill="#fff917" stroke="none" /><path d="M 106.74666289553966 80.11325718540242 l 10.117610687679349 -29.823088059894665 a52.49258051439537,52.49258051439537 0 0,0 0.8531743991771752,0.29765579535444797 l -10.629467090919798 29.644511411368008" fill="#fffa17" stroke="none" /><path d="M 108.76106565485865 80.91482961587045 l 13.11268576097383 -28.564771889701436 a52.43069711248421,52.43069711248421 0 0,0 0.8169745948550518,0.3835805267177743 l -13.60243856712848 28.33482638034366" fill="#fff817" stroke="none" /><line stroke="#e1ed5e" stroke-width="0.3" x1="143.23703022742887" x2="145.7803849466894" y1="26.81831364943548" y2="22.513508569990506" /><path d="M 143.74570117128098 25.957352633546492 a86.0,86.0 0 0,1 28.547481713284135,27.462654790039103" fill="none" id="id38" stroke="none" /><text fill="#e1ed5e" style="font-size:6.75px; font-family:Arial;" text-anchor="middle"><textPath startOffset="19.985693538727396" xlink:href="#id38">February</textPath></text><path d="M 112.19680574252982 82.90503203632743 l 36.47835150816279 -51.12783326745728 a83.80704947199791,83.80704947199791 0 0,0 1.1671316257455013,0.8479707618841382 l -37.35302845026208 50.49234327075646" fill="#4dd4ff" stroke="none" /><path d="M 114.42810811169701 84.74124197986012 l 21.614888185562872 -22.859292840237234 a52.460302929725685,52.460302929725685 0 0,0 0.6507994265886708,0.6260685327505915 l -22.00517085576396 22.48384122072434" fill="#fff917" stroke="none" /><path d="M 116.15771136456269 86.58626213691792 l 13.83357148928698 -11.48429362802419 a38.97934093018681,38.97934093018681 0 0,0 0.42413515144835434,0.5199395453708676 l -14.029205132811743 11.244469913045222" fill="#ff0000" stroke="none" /><path d="M 117.04232023915458 87.72973835380427 l 25.549078843859245 -18.39502355513703 a52.48225407056779,52.48225407056779 0 0,0 0.5215421004177998,0.7376843144993089 l -25.86193356408093 17.952512740305927" fill="#fff917" stroke="none" /><path d="M 117.45458315368197 88.32363383020206 l 26.064490690250334 -17.436024375320212 a52.35877263157643,52.35877263157643 0 0,0 0.49467412660162663,0.7534226324553591 l -26.360761452209886 16.98478367888718" fill="#fff717" stroke="none" /><line stroke="#e1ed5e" stroke-width="0.3" x1="172.23445277983987" x2="176.4835382374775" y1="55.19839476539836" y2="52.563006222186495" /><path d="M 173.08426987136738 54.67131705675599 a86.0,86.0 0 0,1 12.851231095245387,41.99856678651699" fill="none" id="id39" stroke="none" /><text fill="#e1ed5e" style="font-size:6.75px; font-family:Arial;" text-anchor="middle"><textPath startOffset="22.20632615414155" xlink:href="#id39">March</textPath></text><path d="M 117.84615892207809 88.93136811851018 l 26.794869603828417 -16.61884494317628 a52.530160867517054,52.530160867517054 0 0,0 0.46998034954712764,0.7725241216431201 l -27.076965751661767 16.155153048326078" fill="#fffa17" stroke="none" /><path d="M 118.3937258080291 89.86733742301442 l 27.466888831502093 -15.130850566865444 a52.35877263157643,52.35877263157643 0 0,0 0.42807510455731335,0.7931581554036412 l -27.723272035277873 14.655811428129345" fill="#fff717" stroke="none" /><path d="M 119.04729006885535 91.15688171328212 l 28.442839929377087 -13.205206462253416 a52.35877263157643,52.35877263157643 0 0,0 0.37248949132383036,0.8207312187789291 l -28.665931737664263 12.713653234632424" fill="#fff717" stroke="none" /><path d="M 119.196687751892 91.48605970444005 l 28.665931737664263 -12.713653234632424 a52.35877263157643,52.35877263157643 0 0,0 0.35830676420915825,0.8270214128709272 l -28.8805292117161 12.218332677174894" fill="#fff717" stroke="none" /><path d="M 120.53481517161879 95.60439243477599 l 30.664123809439992 -6.563850391214154 a52.35877263157643,52.35877263157643 0 0,0 0.18106337778722242,0.8829293334402912 l -30.77256648314221 6.035045401610451" fill="#fff717" stroke="none" /><path d="M 120.67395015179393 96.31383870115 l 30.8718905812691 -5.504452097807303 a52.35877263157643,52.35877263157643 0 0,0 0.1505642291574664,0.888638603439695 l -30.962066671946786 4.97222770605177" fill="#fff717" stroke="none" /><path d="M 120.78858239683441 97.02765380044208 l 31.043068034053455 -4.438529935917471 a52.35877263157643,52.35877263157643 0 0,0 0.11988663202606008,0.8932946602809753 l -31.11487066513735 3.9035169335718307" fill="#fff717" stroke="none" /><path d="M 120.94382443527127 98.46500227214037 l 31.274887071491722 -2.292173558949365 a52.35877263157643,52.35877263157643 0 0,0 0.05814169683345459,0.8994263158894024 l -31.309709359329595 1.7534881788069276" fill="#fff717" stroke="none" /><path d="M 120.98425023603335 99.18683210126433 l 31.51888475949697 -1.2213991446957073 a52.542541310952004,52.542541310952004 0 0,0 0.027242821136692238,0.9040566050381992 l -31.535239275089307 0.678672392232509" fill="#fffa17" stroke="none" /><line stroke="#e1ed5e" stroke-width="0.3" x1="184.98032266829074" x2="189.97916517819016" y1="98.17113171792111" y2="98.06355123074" /><path d="M 185.9800911702706 98.14961562048488 a86.0,86.0 0 0,1 -9.607161424134198,41.387399972396054" fill="none" id="id40" stroke="none" /><text fill="#e1ed5e" style="font-size:6.75px; font-family:Arial;" text-anchor="middle"><textPath startOffset="21.466115282336823" xlink:href="#id40">April</textPath></text><path d="M 120.99824983174949 100.27111621757518 l 31.356159149279545 0.4048510392225352 a52.35877263157643,52.35877263157643 0 0,0 -0.019392535781826127,0.901094936275311 l -31.34454455081271 -0.9445357912879611" fill="#fff717" stroke="none" /><path d="M 119.9155931802556 106.66101706037122 l 46.90977643429985 15.68955633402133 a70.46402028822993,70.46402028822993 0 0,0 -0.3946292797380024,1.1469774087898255 l -46.632756323618615 -16.494706445900455" fill="#36ff6d" stroke="none" /><path d="M 119.67450827220406 107.3425965602758 l 30.393016612367273 11.342782048060444 a53.44062520034772,53.44062520034772 0 0,0 -0.329056120976398,0.8590616972066757 l -30.19326621179737 -11.864267312100264" fill="#f5ff19" stroke="none" /><path d="M 119.41010516605496 108.01547362559984 l 29.07609401381584 12.007078926639865 a52.45773652777352,52.45773652777352 0 0,0 -0.35183908184806073,0.8316436579042106 l -28.86510395077547 -12.505797110210239" fill="#fff917" stroke="none" /><line stroke="#e1ed5e" stroke-width="0.3" x1="174.80103733775053" x2="179.2010983576182" y1="140.37084112569926" y2="142.7455964860345" /><path d="M 175.68104954172406 140.8457921977663 a86.0,86.0 0 0,1 -30.038265399797805,32.042727171017184" fill="none" id="id41" stroke="none" /><text fill="#e1ed5e" style="font-size:6.75px; font-family:Arial;" text-anchor="middle"><textPath startOffset="22.206326154141568" xlink:href="#id41">May</textPath></text><path d="M 118.48025628344425 109.97397251340804 l 27.71762260721642 14.95946819033345 a52.496861614035026,52.496861614035026 0 0,0 -0.4360329092974862,0.7915263846949561 l -27.456013288467425 -15.43436509342621" fill="#fffa17" stroke="none" /><path d="M 118.12598468904814 110.60418214915192 l 54.30320562525141 31.768816624949775 a83.91339961350063,83.91339961350063 0 0,0 -0.7401126854093955,1.240471431948273 l -53.74831206414378 -32.69885015078415" fill="#4dd3ff" stroke="none" /><path d="M 117.14729908036423 112.12312394758627 l 25.78033678498258 18.226673296481792 a52.57273165571532,52.57273165571532 0 0,0 -0.5287820617000909,0.7344320351153517 l -25.46277493090689 -18.667738937048274" fill="#fffb17" stroke="none" /><path d="M 116.27256486870786 113.27417163493432 l 48.72123079850386 39.743825580210654 a83.87551194440717,83.87551194440717 0 0,0 -0.9222472009019284,1.110906164340778 l -48.029887597708395 -40.5765930016652" fill="#4dd4ff" stroke="none" /><path d="M 115.80600337817218 113.82643327865902 l 47.41801013451653 41.47929983597707 a84.0,84.0 0 0,0 -0.9613646014066468,1.080103321036534 l -46.696986683461546 -42.289377326754476" fill="#4dd2ff" stroke="none" /><path d="M 115.07121518719521 114.62390073753431 l 22.555649849566908 21.886196990332646 a52.428696422790324,52.428696422790324 0 0,0 -0.6340361415564242,0.6422752639507016 l -22.175573082954948 -22.27121274826401" fill="#fff817" stroke="none" /><path d="M 114.55890576462653 115.13401014063108 l 21.98700939743549 22.855537947873746 a52.714416235043856,52.714416235043856 0 0,0 -0.6593422931406409,0.6234492922353982 l -21.59033126990404 -23.230621876855064" fill="#fffd17" stroke="none" /><path d="M 114.0293411484842 115.62618273729858 l 21.071547959538545 23.469944560374163 a52.54121797074694,52.54121797074694 0 0,0 -0.678176138979656,0.5984115924619339 l -20.664429467652305 -23.829179294608387" fill="#fffa17" stroke="none" /><path d="M 113.48314897796784 116.09983520530334 l 40.3619202014403 48.194992495791034 a83.863677143616,83.863677143616 0 0,0 -1.1147074962317647,0.9173283804987752 l -39.52634257666384 -48.88261599514699" fill="#4dd4ff" stroke="none" /><path d="M 112.34349029814194 116.9893568818739 l 18.654015348777378 25.675049470248947 a52.73610647089767,52.73610647089767 0 0,0 -0.7389902366684183,0.5272499124551983 l -18.209297784260077 -25.992343644548367" fill="#fffe18" stroke="none" /><path d="M 111.7513745106137 117.40417183066458 l 17.672223382226143 26.17314358387252 a52.58070493724463,52.58070493724463 0 0,0 -0.754471274080014,0.5000224203991065 l -17.219077409406164 -26.473464025362944" fill="#fffb17" stroke="none" /><path d="M 111.1453310114006 117.79835938074945 l 17.126992639373782 27.350678934094553 a53.27062929391194,53.27062929391194 0 0,0 -0.7813553264390546,0.47997225912943764 l -16.653658113002418 -27.64143966005237" fill="#f7ff18" stroke="none" /><line stroke="#e1ed5e" stroke-width="0.3" x1="143.8653032363475" x2="146.44561519142675" y1="172.8068346515853" y2="177.08958963109032" /><path d="M 144.38136562736335 173.6633856474863 a86.0,86.0 0 0,1 -40.68145358897372,12.25698825130547" fill="none" id="id42" stroke="none" /><text fill="#e1ed5e" style="font-size:6.75px; font-family:Arial;" text-anchor="middle"><textPath startOffset="21.466115282336833" xlink:href="#id42">June</textPath></text><path d="M 102.34483914955558 120.86867818915974 l 3.517870784683403 31.30846451899212 a52.505481513456,52.505481513456 0 0,0 -0.899012364369805,0.09318630740671462 l -2.9784258237079952 -31.364380194854593" fill="#fffa17" stroke="none" /><line stroke="#e1ed5e" stroke-width="0.3" x1="102.19456741930631" x2="102.32365962044197" y1="184.97166512339345" y2="189.96999836594603" /><path d="M 102.22038585953345 185.97133177190398 a86.0,86.0 0 0,1 -42.740103519485714,-10.115201625700543" fill="none" id="id43" stroke="none" /><text fill="#e1ed5e" style="font-size:6.75px; font-family:Arial;" text-anchor="middle"><textPath startOffset="22.20632615414155" xlink:href="#id43">July</textPath></text><path d="M 98.73552117531835 120.96189622390904 l -2.1590216655222827 35.791179112266676 a56.85623902194079,56.85623902194079 0 0,0 -0.9764036701602853,-0.06733851376445024 l 2.7747880964614984 -35.74871225398594" fill="#beff1f" stroke="none" /><path d="M 98.01472825383883 120.90594882070398 l -2.6030335279310326 27.411303172338922 a48.5346204831919,48.5346204831919 0 0,0 -0.8310222600892522,-0.08613885510326348 l 3.074488384625878 -27.3624349487799" fill="#ffb510" stroke="none" /><path d="M 96.58105272829116 120.7198165907248 l -5.117643348840865 31.01440974014394 a52.43380163097474,52.43380163097474 0 0,0 -0.8892548752620076,-0.15460835859702574 l 5.650747195574922 -30.921722803025908" fill="#fff917" stroke="none" /><path d="M 93.76903079525671 120.05430185196036 l -9.347694289699135 30.085445256697565 a52.50418075156724,52.50418075156724 0 0,0 -0.8607651774405576,-0.2755898277480707 l 9.864180812230634 -29.920082582289787" fill="#fffa17" stroke="none" /><path d="M 92.40401165467489 119.57807347666478 l -11.363048164817554 29.287379308130994 a52.414478355279165,52.414478355279165 0 0,0 -0.8383294566570707,-0.33358859195204676 l 11.865498697516484 -29.08744387177288" fill="#fff817" stroke="none" /><path d="M 91.07499286063937 119.00905698771935 l -13.33692115998385 28.405836590626503 a52.380965862143256,52.380965862143256 0 0,0 -0.8128711053516318,-0.39022752866451077 l 13.823904933335724 -28.172054785462432" fill="#fff817" stroke="none" /><line stroke="#e1ed5e" stroke-width="0.3" x1="58.666819895761336" x2="56.23545636021788" y1="174.27360380694188" y2="178.64263932499728" /><path d="M 58.180547188652646 175.14741091055294 a86.0,86.0 0 0,1 -31.652253787137756,-30.449443065178592" fill="none" id="id44" stroke="none" /><text fill="#e1ed5e" style="font-size:6.75px; font-family:Arial;" text-anchor="middle"><textPath startOffset="22.20632615414155" xlink:href="#id44">August</textPath></text><path d="M 86.24171649860922 115.8653595955263 l -22.286946449516066 25.700184159751263 a55.017751952307584,55.017751952307584 0 0,0 -0.710142018693404,-0.6266177647002119 l 22.72603082111606 -25.31274325327876" fill="#dbff1b" stroke="none" /><line stroke="#e1ed5e" stroke-width="0.3" x1="26.63291911575756" x2="22.317208475507996" y1="142.92168965132927" y2="145.44649492493687" /><path d="M 25.769776987707644 143.4266507060508 a86.0,86.0 0 0,1 -11.730757126820373,-40.83630448921669" fill="none" id="id45" stroke="none" /><text fill="#e1ed5e" style="font-size:6.75px; font-family:Arial;" text-anchor="middle"><textPath startOffset="21.46611528233685" xlink:href="#id45">September</textPath></text><path d="M 79.50377843672027 104.57218783832718 l -38.29415226391663 8.542455335953726 a60.235387608366956,60.235387608366956 0 0,0 -0.21703659553299978,-1.0139227191270748 l 38.43552289817407 -7.8820187974104865" fill="#8aff24" stroke="none" /><line stroke="#e1ed5e" stroke-width="0.3" x1="15.007084014347285" x2="10.007500721073583" y1="101.09737516637583" y2="101.16192664675087" /><path d="M 14.007167355692545 101.11028546245083 a86.0,86.0 0 0,1 10.666146001902534,-42.60595125391555" fill="none" id="id46" stroke="none" /><text fill="#e1ed5e" style="font-size:6.75px; font-family:Arial;" text-anchor="middle"><textPath startOffset="22.20632615414155" xlink:href="#id46">October</textPath></text><line stroke="#e1ed5e" stroke-width="0.3" x1="26.266209847984243" x2="21.928928074336255" y1="57.711370442889674" y2="55.22380399835377" /><path d="M 25.398753493254645 57.213857153982495 a86.0,86.0 0 0,1 29.58750427330803,-30.492523968695096" fill="none" id="id47" stroke="none" /><text fill="#e1ed5e" style="font-size:6.75px; font-family:Arial;" text-anchor="middle"><textPath startOffset="21.46611528233685" xlink:href="#id47">November</textPath></text><line stroke="#e1ed5e" stroke-width="0.3" x1="56.762969772571076" x2="54.21961505331055" y1="26.818313649435495" y2="22.513508569990535" /><path d="M 56.25429882871897 25.957352633546506 a86.0,86.0 0 0,1 42.265352541879196,-11.944610805530505" fill="none" id="id48" stroke="none" /><text fill="#e1ed5e" style="font-size:6.75px; font-family:Arial;" text-anchor="middle"><textPath startOffset="22.20632615414155" xlink:href="#id48">December</textPath></text></svg>