<?xml version="1.0" encoding="utf-8" ?>
<svg baseProfile="full" height="200mm" version="1.1" viewBox="0,0,200,200" width="200mm" xmlns="http://www.w3.org/2000/svg" xmlns:ev="http://www.w3.org/2001/xml-events" xmlns:xlink="http://www.w3.org/1999/xlink"><defs /><rect fill="#1a1a1a" height="200" width="200" x="0" y="0" /><text alignment-baseline="middle" fill="#e1ed5e" style="dominant-baseline: central; font-size:9.0px; font-family:Arial;" text-anchor="middle" x="100.0" y="100.0">2021</text><line stroke="#e1ed5e" stroke-width="0.3" x1="100.0" x2="100.0" y1="15.0" y2="10.0" /><path d="M 100.0 14.0 a86.0,86.0 0 0,1 42.46469731375804,11.215312516191453" fill="none" id="id25" stroke="none" /><text fill="#e1ed5e" style="font-size:6.75px; font-family:Arial;" text-anchor="middle"><textPath startOffset="22.20632615414155" xlink:href="#id25">January</textPath></text><line stroke="#e1ed5e" stroke-width="0.3" x1="143.23703022742887" x2="145.7803849466894" y1="26.81831364943548" y2="22.513508569990506" /><path d="M 143.74570117128098 25.957352633546492 a86.0,86.0 0 0,1 28.547481713284135,27.462654790039103" fill="none" id="id26" stroke="none" /><text fill="#e1ed5e" style="font-size:6.75px; font-family:Arial;" text-anchor="middle"><textPath startOffset="19.985693538727396" xlink:href="#id26">February</textPath></text><path d="M 115.68641384162765 86.03803664274999 l 22.10632383663855 -19.67611504368063 a50.59457816530739,50.59457816530739 0 0,0 0.5734248220090336,0.6555236980597211 l -22.44174052222543 19.29267578941796" fill="#b3ff20" stroke="none" /><line stroke="#e1ed5e" stroke-width="0.3" x1="172.23445277983987" x2="176.4835382374775" y1="55.19839476539836" y2="52.563006222186495" /><path d="M 173.08426987136738 54.67131705675599 a86.0,86.0 0 0,1 12.851231095245387,41.99856678651699" fill="none" id="id27" stroke="none" /><text fill="#e1ed5e" style="font-size:6.75px; font-family:Arial;" text-anchor="middle"><textPath startOffset="22.20632615414155" xlink:href="#id27">March</textPath></text><path d="M 119.04729006885535 91.15688171328212 l 27.075832852365625 -12.570543723507228 a50.85162129858023,50.85162129858023 0 0,0 0.3617673524126287,0.7971064069614673 l -27.288202521741603 12.102615307703699" fill="#b0ff20" stroke="none" /><path d="M 120.28053869075195 94.5502522615342 l 28.63057794901285 -7.693554387672743 a50.64626068850133,50.64626068850133 0 0,0 0.21899363083661,0.8438717927376835 l -28.75876791171976 7.199586169386208" fill="#b2ff20" stroke="none" /><path d="M 120.78858239683441 97.02765380044208 l 29.410096465319167 -4.205048078248686 a50.70919392107032,50.70919392107032 0 0,0 0.11610956801319584,0.8651511462193104 l -29.4781220323902 3.6981785899647113" fill="#b2ff20" stroke="none" /><line stroke="#e1ed5e" stroke-width="0.3" x1="184.98032266829074" x2="189.97916517819016" y1="98.17113171792111" y2="98.06355123074" /><path d="M 185.9800911702706 98.14961562048488 a86.0,86.0 0 0,1 -9.607161424134198,41.387399972396054" fill="none" id="id28" stroke="none" /><text fill="#e1ed5e" style="font-size:6.75px; font-family:Arial;" text-anchor="middle"><textPath startOffset="21.466115282336823" xlink:href="#id28">April</textPath></text><path d="M 119.54520255179757 107.68017299344265 l 11.120818925914675 4.3698607345422795 a32.9485688022573,32.9485688022573 0 0,0 -0.211965024245019,0.5260798070510202 l -11.043951287412263 -4.560639909436113" fill="#ff5908" stroke="none" /><line stroke="#e1ed5e" stroke-width="0.3" x1="174.80103733775053" x2="179.2010983576182" y1="140.37084112569926" y2="142.7455964860345" /><path d="M 175.68104954172406 140.8457921977663 a86.0,86.0 0 0,1 -30.038265399797805,32.042727171017184" fill="none" id="id29" stroke="none" /><text fill="#e1ed5e" style="font-size:6.75px; font-family:Arial;" text-anchor="middle"><textPath startOffset="22.206326154141568" xlink:href="#id29">May</textPath></text><path d="M 117.35343817320211 111.8261652097733 l 24.524697547661823 16.713294623439623 a50.67819076315444,50.67819076315444 0 0,0 -0.49746458431337454,0.7166348363653231 l -24.23337205618631 -17.132970721991967" fill="#b2ff20" stroke="none" /><path d="M 116.498646956653 112.99209946851258 l 16.281234487424534 12.8208948580174 a41.72327052843829,41.72327052843829 0 0,0 -0.4491849579509289,0.5604273003884443 l -16.058131617418752 -13.099249991984095" fill="#ffd714" stroke="none" /><path d="M 116.0416608686014 113.55231037782055 l 22.578653650761574 19.07489035548413 a50.557520916930606,50.557520916930606 0 0,0 -0.5673456429336536,0.6599511568071783 l -22.24696549825714 -19.460718611452833" fill="#b4ff20" stroke="none" /><path d="M 114.81725581225074 114.88116024355365 l 20.87290306072664 20.962924520613548 a50.58246586475563,50.58246586475563 0 0,0 -0.6222848792909229,0.6090367279917132 l -20.508968229059924 -21.319111351527834" fill="#b3ff20" stroke="none" /><path d="M 113.20401910651253 116.32954008644616 l 8.23075129816301 10.179050952647463 a34.09039133214914,34.09039133214914 0 0,0 -0.4594776112808654,0.36503680328066457 l -8.054316194164794 -10.319221669933253" fill="#ff6a09" stroke="none" /><line stroke="#e1ed5e" stroke-width="0.3" x1="143.8653032363475" x2="146.44561519142675" y1="172.8068346515853" y2="177.08958963109032" /><path d="M 144.38136562736335 173.6633856474863 a86.0,86.0 0 0,1 -40.68145358897372,12.25698825130547" fill="none" id="id30" stroke="none" /><text fill="#e1ed5e" style="font-size:6.75px; font-family:Arial;" text-anchor="middle"><textPath startOffset="21.466115282336833" xlink:href="#id30">June</textPath></text><path d="M 105.53697534728816 120.25689768951611 l 7.787249710379484 28.48947498802395 a50.53458046333226,50.53458046333226 0 0,0 -0.8410628019260006,0.22213233028950796 l -7.295696465641987 -28.619298667617045" fill="#b4ff20" stroke="none" /><path d="M 102.34483914955558 120.86867818915974 l 3.297308422669096 29.345496204346787 a50.5301606889217,50.5301606889217 0 0,0 -0.8651904129532013,0.0896805238527677 l -2.791685413110292 -29.397906096655312" fill="#b4ff20" stroke="none" /><line stroke="#e1ed5e" stroke-width="0.3" x1="102.19456741930631" x2="102.32365962044197" y1="184.97166512339345" y2="189.96999836594603" /><path d="M 102.22038585953345 185.97133177190398 a86.0,86.0 0 0,1 -42.740103519485714,-10.115201625700543" fill="none" id="id31" stroke="none" /><text fill="#e1ed5e" style="font-size:6.75px; font-family:Arial;" text-anchor="middle"><textPath startOffset="22.20632615414155" xlink:href="#id31">July</textPath></text><path d="M 96.22490169976321 120.6578951692458 l -5.322111902199829 29.123381965376417 a50.60567939096736,50.60567939096736 0 0,0 -0.8555550033521501,-0.16396915263050504 l 5.822634520123675 -29.027455614397443" fill="#b3ff20" stroke="none" /><path d="M 93.76903079525671 120.05430185196036 l -8.89161708592892 28.617566085469537 a50.96708098996296,50.96708098996296 0 0,0 -0.8355656232316929,-0.2675217262660858 l 9.382904054251552 -28.460271512543745" fill="#afff20" stroke="none" /><path d="M 91.7346041902142 119.30500536409082 l -4.748546755066923 11.090905104589146 a33.06469528517228,33.06469528517228 0 0,0 -0.5212874765553397,-0.22851711049506182 l 4.938754906280006 -11.007523440799632" fill="#ff5b08" stroke="none" /><path d="M 90.10565033884886 118.52300852407294 l -13.917246124850363 26.054190263196375 a50.53828989583688,50.53828989583688 0 0,0 -0.7637952542908669,-0.4164820719309306 l 14.363664191009871 -25.810767539505676" fill="#b4ff20" stroke="none" /><line stroke="#e1ed5e" stroke-width="0.3" x1="58.666819895761336" x2="56.23545636021788" y1="174.27360380694188" y2="178.64263932499728" /><path d="M 58.180547188652646 175.14741091055294 a86.0,86.0 0 0,1 -31.652253787137756,-30.449443065178592" fill="none" id="id32" stroke="none" /><text fill="#e1ed5e" style="font-size:6.75px; font-family:Arial;" text-anchor="middle"><textPath startOffset="22.20632615414155" xlink:href="#id32">August</textPath></text><path d="M 86.79598089348748 116.32954008644616 l -18.65373034594217 23.069251489918006 a50.66735613640366,50.66735613640366 0 0,0 -0.6734653621588013,-0.5542161437682618 l 19.04806583664566 -22.744740227292564" fill="#b2ff20" stroke="none" /><path d="M 84.19399662182784 113.82643327865904 l -22.24227988430193 19.456619831567064 a50.55129556756778,50.55129556756778 0 0,0 -0.5672757833999447,-0.6598698943868835 l 22.57389817727265 -19.070872838018648" fill="#b4ff20" stroke="none" /><line stroke="#e1ed5e" stroke-width="0.3" x1="26.63291911575756" x2="22.317208475507996" y1="142.92168965132927" y2="145.44649492493687" /><path d="M 25.769776987707644 143.4266507060508 a86.0,86.0 0 0,1 -11.730757126820373,-40.83630448921669" fill="none" id="id33" stroke="none" /><text fill="#e1ed5e" style="font-size:6.75px; font-family:Arial;" text-anchor="middle"><textPath startOffset="21.46611528233685" xlink:href="#id33">September</textPath></text><path d="M 81.69416730710424 110.29060199501025 l -25.875406677939374 14.545828974228609 a50.683628674679554,50.683628674679554 0 0,0 -0.4209724045458896,-0.7641871939514783 l 26.12195549193678 -14.098271261879308" fill="#b2ff20" stroke="none" /><path d="M 79.97269907076064 106.31721596034903 l -28.227273901528623 8.9037352480953 a50.598234631141324,50.598234631141324 0 0,0 -0.2548542182108526,-0.8328783308794495 l 28.376354892245608 -8.416529944663802" fill="#b3ff20" stroke="none" /><path d="M 79.07016306316243 101.71520430193888 l -29.485870915808867 2.4163729891366987 a50.584716359741776,50.584716359741776 0 0,0 -0.06364868024823205,-0.8684356728751763 l 29.523096154721433 -1.9084641797647617" fill="#b3ff20" stroke="none" /><line stroke="#e1ed5e" stroke-width="0.3" x1="15.007084014347285" x2="10.007500721073583" y1="101.09737516637583" y2="101.16192664675087" /><path d="M 14.007167355692545 101.11028546245083 a86.0,86.0 0 0,1 10.666146001902534,-42.60595125391555" fill="none" id="id34" stroke="none" /><text fill="#e1ed5e" style="font-size:6.75px; font-family:Arial;" text-anchor="middle"><textPath startOffset="22.20632615414155" xlink:href="#id34">October</textPath></text><path d="M 79.00175016825051 100.2711162175752 l -29.601923265580805 0.38220144693111546 a50.604390535313684,50.604390535313684 0 0,0 -0.0037488279770874077,-0.8710955971331207 l 29.604116390847395 0.12740362840568056" fill="#b3ff20" stroke="none" /><path d="M 79.32604984820605 96.31383870115002 l -29.125807374229097 -5.193125800940687 a50.58515186347864,50.58515186347864 0 0,0 0.16022070271947603,-0.8559054005704264 l 29.03210094759976 5.693709278973686" fill="#b3ff20" stroke="none" /><path d="M 79.81627453868168 94.20196356495316 l -11.749992701049086 -3.375337517485602 a33.22518841702052,33.22518841702052 0 0,0 0.16263587793438714,-0.5483273297689801 l 11.69015092600299 3.577094234001121" fill="#ff5d08" stroke="none" /><path d="M 81.10775173730289 90.83032412892265 l -26.562880549081726 -12.892748467537402 a50.526421830488914,50.526421830488914 0 0,0 0.3865030356361972,-0.7791665351076469 l 26.337017500492117 13.348074591144009" fill="#b4ff20" stroke="none" /><line stroke="#e1ed5e" stroke-width="0.3" x1="26.266209847984243" x2="21.928928074336255" y1="57.711370442889674" y2="55.22380399835377" /><path d="M 25.398753493254645 57.213857153982495 a86.0,86.0 0 0,1 29.58750427330803,-30.492523968695096" fill="none" id="id35" stroke="none" /><text fill="#e1ed5e" style="font-size:6.75px; font-family:Arial;" text-anchor="middle"><textPath startOffset="21.46611528233685" xlink:href="#id35">November</textPath></text><path d="M 81.96595687620814 89.24020034530311 l -25.396983738603815 -15.152811545651586 a50.573881732991,50.573881732991 0 0,0 0.452477780808109,-0.7437545006267462 l 25.13239015950949 15.587733819485408" fill="#b3ff20" stroke="none" /><path d="M 83.17141714833178 87.43820079747576 l -23.69476450846355 -17.687102742398242 a50.568149562184225,50.568149562184225 0 0,0 0.5266890936950184,-0.693061109501039 l 23.38679947454442 18.092348627780307" fill="#b3ff20" stroke="none" /><path d="M 84.31358615837235 86.03803664274999 l -4.625797874767721 -4.1172712308634605 a27.192731898500167,27.192731898500167 0 0,0 0.31421377734257117,-0.346962700891874 l 4.554240456809104 4.196286719024891" fill="#ff0000" stroke="none" /><path d="M 85.05521093208273 85.24692304244772 l -21.014072497216567 -20.744503474362123 a50.5283874824904,50.5283874824904 0 0,0 0.6163601880137191,-0.6137133414877656 l 20.653876509035534 21.103152666499998" fill="#b4ff20" stroke="none" /><path d="M 88.09926311788651 82.69761687909137 l -16.781731756642255 -24.39882127989512 a50.61298702596815,50.61298702596815 0 0,0 0.7220673007163229,-0.4875430646826454 l 16.359259761519393 24.68407625687643" fill="#b3ff20" stroke="none" /><line stroke="#e1ed5e" stroke-width="0.3" x1="56.762969772571076" x2="54.21961505331055" y1="26.818313649435495" y2="22.513508569990535" /><path d="M 56.25429882871897 25.957352633546506 a86.0,86.0 0 0,1 42.265352541879196,-11.944610805530505" fill="none" id="id36" stroke="none" /><text fill="#e1ed5e" style="font-size:6.75px; font-family:Arial;" text-anchor="middle"><textPath startOffset="22.20632615414155" xlink:href="#id36">December</textPath></text><path d="M 90.58718382345135 81.22770947309562 l -13.228295831710872 -26.381627758481027 a50.51233799275001,50.51233799275001 0 0,0 0.7806050023394421,-0.38303948451765885 l 12.772219562361004 26.605422403133517" fill="#b4ff20" stroke="none" /><path d="M 91.90106846888425 80.62456947434976 l -11.386656449965662 -27.240799618831048 a50.5248557825919,50.5248557825919 0 0,0 0.8053087722454428,-0.3285056682979845 l 10.91606380813184 27.43276617331261" fill="#b4ff20" stroke="none" /><path d="M 96.04723909329186 79.375362276772 l -5.574191953292367 -29.084908586624127 a50.61424527865654,50.61424527865654 0 0,0 0.8570796458469102,-0.1566258269632985 l 5.0727171863425635 29.176549894938162" fill="#b3ff20" stroke="none" /><path d="M 98.91598698831166 79.02799685794201 l -1.1596237051870706 -22.434815566383865 a43.46476522546567,43.46476522546567 0 0,0 0.7475094490106016,-0.032189329302295844 l 0.7732734237871448 22.451452622210354" fill="#ffef16" stroke="none" /><path d="M 99.63851952072746 79.00311137660856 l -1.0844414378176228 -62.990665870174325 a84.0,84.0 0 0,0 1.445921917090143,-0.012445506434235476 l 1.543054966925665e-14 63.0" fill="#4dd2ff" stroke="none" /></svg>